<svg width="103" height="90" viewBox="0 0 103 90" fill="none" xmlns="http://www.w3.org/2000/svg">
<path d="M101.14 0.849211C102.303 1.7457 103 3.21991 103 4.79374V71.7312C103 73.7234 101.891 75.4965 100.228 76.1937L70.1866 88.9437C69.2568 89.3422 68.2375 89.3621 67.3076 89.0035L34.4227 76.8113L5.81163 88.9637C4.48837 89.5215 3.00417 89.3223 1.84184 88.4258C0.679514 87.5293 0 86.0551 0 84.4812V17.5437C0 15.5516 1.0908 13.7785 2.7717 13.0812L32.8134 0.331242C33.7432 -0.0671953 34.7625 -0.087117 35.6924 0.271477L68.5773 12.4637L97.1884 0.311321C98.5116 -0.246492 99.9958 -0.047273 101.158 0.849211H101.14ZM8.58333 20.8309V77.5285L30.0417 68.4242V11.7266L8.58333 20.8309ZM64.375 77.8473V20.9902L38.625 11.4277V68.2848L64.375 77.8473ZM72.9583 77.5484L94.4167 68.4441V11.7465L72.9583 20.8309V77.5285V77.5484Z" fill="#223B3F"/>
</svg>
