<svg width="97" height="87" viewBox="0 0 97 87" fill="none" xmlns="http://www.w3.org/2000/svg">
<path d="M31.5251 59.8125C48.9396 59.8125 63.0501 46.4227 63.0501 29.9062C63.0501 13.3898 48.9396 0 31.5251 0C14.1105 0 7.18533e-05 13.3898 7.18533e-05 29.9062C7.18533e-05 36.4652 2.22804 42.5314 6.00195 47.4762C5.47148 49.0734 4.68335 50.4838 3.84976 51.6732C3.12226 52.7268 2.3796 53.5424 1.83398 54.1031C1.56117 54.375 1.33382 54.5959 1.18226 54.7318C1.10648 54.7998 1.04585 54.8508 1.01554 54.8678L0.985228 54.9018C0.151634 55.5984 -0.212116 56.8219 0.121322 57.9264C0.454759 59.0309 1.37929 59.8125 2.42507 59.8125C5.72913 59.8125 9.06351 58.8609 11.8371 57.6885C13.2315 57.0938 14.5349 56.4311 15.6565 55.7514C20.3246 58.3342 25.7354 59.8125 31.5251 59.8125ZM67.9001 29.9062C67.9001 48.9885 52.8802 63.3639 35.0868 65.0801C38.7698 77.7223 50.9857 87 65.4751 87C71.2648 87 76.6755 85.5217 81.3437 82.9389C82.4804 83.6186 83.7687 84.2812 85.163 84.876C87.9366 86.0484 91.271 87 94.5751 87C95.6209 87 96.5605 86.2354 96.8788 85.1139C97.1971 83.9924 96.8485 82.7689 95.9998 82.0723L95.9695 82.0383C95.9391 82.0043 95.8785 81.9703 95.8027 81.9023C95.6512 81.7664 95.4238 81.5625 95.151 81.2736C94.6054 80.7129 93.8627 79.8973 93.1352 78.8438C92.3016 77.6543 91.5135 76.227 90.983 74.6467C94.7569 69.7189 96.9849 63.6527 96.9849 57.0768C96.9849 41.308 84.1173 28.377 67.794 27.2555C67.8546 28.1221 67.8849 29.0057 67.8849 29.8893L67.9001 29.9062Z" fill="#223B3F"/>
</svg>
