<svg width="68" height="95" viewBox="0 0 68 95" fill="none" xmlns="http://www.w3.org/2000/svg">
<g clip-path="url(#clip0_9_23)">
<path d="M31.9661 1.09473L9.41071 31.4316C8.81875 32.2109 8.5 33.25 8.5 34.3076C8.5 36.6826 10.0634 38.5938 12.0062 38.5938H15.7857L4.64464 52.2129C4.00714 52.9922 3.64286 54.0684 3.64286 55.1816C3.64286 57.501 5.17589 59.375 7.07321 59.375H12.1429L0.819643 75.9814C0.288393 76.7607 0 77.7441 0 78.7646C0 81.1768 1.59375 83.125 3.56696 83.125H29.1429V89.0625C29.1429 92.3467 31.3134 95 34 95C36.6866 95 38.8571 92.3467 38.8571 89.0625V83.125H64.433C66.4063 83.125 68 81.1768 68 78.7646C68 77.7441 67.7116 76.7607 67.1804 75.9814L55.8571 59.375H60.9268C62.8241 59.375 64.3571 57.501 64.3571 55.1816C64.3571 54.0684 63.9929 52.9922 63.3554 52.2129L52.2143 38.5938H55.9937C57.9214 38.5938 59.5 36.6826 59.5 34.3076C59.5 33.25 59.1813 32.2109 58.5893 31.4316L36.0339 1.09473C35.5179 0.389648 34.7741 0 34 0C33.2259 0 32.4821 0.389648 31.9661 1.09473Z" fill="#223B3F"/>
</g>
<defs>
<clipPath id="clip0_9_23">
<rect width="68" height="95" fill="white"/>
</clipPath>
</defs>
</svg>
