<svg width="101" height="81" viewBox="0 0 101 81" fill="none" xmlns="http://www.w3.org/2000/svg">
<path d="M53.1875 12.0625C37.5289 12.0625 24.2809 21.2158 19.7785 33.8349C26.4723 30.8134 34.0227 29.125 42.0312 29.125H59.5625C61.3156 29.125 62.75 30.4046 62.75 31.9687C62.75 33.5328 61.3156 34.8125 59.5625 34.8125H56.375H42.0312C38.7242 34.8125 35.5168 35.1501 32.409 35.7722C27.2492 36.8208 22.468 38.6871 18.1848 41.2287C6.63008 48.107 -1 59.8552 -1 73.2031V76.0468C-1 78.4107 1.13164 80.3125 3.78125 80.3125C6.43086 80.3125 8.5625 78.4107 8.5625 76.0468V73.2031C8.5625 64.5474 12.6863 56.7626 19.2805 51.3062C23.225 64.7251 36.9113 74.625 53.1875 74.625H53.3867C79.7035 74.5005 101 51.3595 101 22.8332C101 15.2617 99.5059 8.06343 96.7965 1.57612C96.2785 0.349757 94.2664 0.403077 93.5691 1.55835C89.8238 7.8146 82.4129 12.0625 73.9062 12.0625H53.1875Z" fill="#223B3F"/>
</svg>
